<svg xmlns="http://www.w3.org/2000/svg" xmlns:xlink="http://www.w3.org/1999/xlink" xmlns:sketch="http://www.bohemiancoding.com/sketch/ns" width="22px" height="15px" viewBox="0 0 22 15" version="1.1">
    <title>stack_money</title>
    <description>Created with Sketch (http://www.bohemiancoding.com/sketch)</description>
    <defs/>
    <g id="iOS7-active" stroke="none" stroke-width="1" fill="none" fill-rule="evenodd" sketch:type="MSPage">
        <path d="M0,4 L0,15 L22,15 L21.9999999,4 L0,4 L0,4 Z M1,2 L1,3 L21,3 L20.9999999,2 L1,2 L1,2 Z M2,0 L2,1 L20,1 L19.9999999,0 L2,0 L2,0 Z M11.0943446,13.1994629 L11.0943446,12.560867 C10.6181961,12.5328583 10.2246794,12.4012192 9.91378245,12.1659458 C9.60288555,11.9306726 9.39702445,11.5777678 9.296193,11.1072211 C9.28498955,11.0343984 9.27658705,10.9643776 9.2709853,10.8971567 L9.25418015,10.6954948 L9.80034765,10.6954948 C9.80034765,10.8859542 9.8311568,11.063807 9.892776,11.2290585 C9.95439525,11.39431 10.0426214,11.5399532 10.1574572,11.6659925 C10.272293,11.7920318 10.4081333,11.8942621 10.5649822,11.9726866 C10.7218311,12.051111 10.8954826,12.0959244 11.085942,12.1071278 L11.085942,9.61156235 C10.8562704,9.5555449 10.639206,9.48972535 10.4347422,9.41410175 C10.2302785,9.3384782 10.0524257,9.2404491 9.9011786,9.12001155 C9.74993145,8.999574 9.6308961,8.84972955 9.54406905,8.67047365 C9.457242,8.4912178 9.4138291,8.26995215 9.4138291,8.00667005 C9.4138291,7.7713967 9.4586424,7.55853355 9.54827035,7.3680742 C9.6378983,7.1776148 9.75973445,7.0151666 9.91378245,6.8807247 C10.0678305,6.7462828 10.2456833,6.64405245 10.4473461,6.5740306 C10.649009,6.5040088 10.864673,6.47179925 11.0943446,6.47740095 L11.0943446,5.96484375 L11.4808631,5.96484375 L11.4808631,6.47740095 C11.7105348,6.47740095 11.9233979,6.50961055 12.119459,6.5740306 C12.3155201,6.6384507 12.4863709,6.73367895 12.6320162,6.85971825 C12.7776617,6.98575755 12.8924958,7.14120365 12.9765219,7.3260613 C13.0605481,7.5109189 13.1081622,7.72098125 13.1193658,7.9562546 L12.5731982,7.9562546 C12.5731982,7.80500745 12.5437895,7.6663663 12.4849711,7.540327 C12.4261528,7.4142877 12.3477296,7.3064557 12.249699,7.2168278 C12.1516684,7.12719985 12.0368343,7.05717905 11.9051933,7.00676335 C11.7735522,6.95634765 11.6321103,6.93114015 11.4808631,6.93114015 L11.4808631,9.16622575 C11.7553487,9.2334467 12.0046227,9.3062683 12.2286925,9.38469275 C12.4527624,9.4631172 12.6432189,9.56674795 12.8000678,9.6955881 C12.9569167,9.8244283 13.0787529,9.99107775 13.1655799,10.1955415 C13.252407,10.4000052 13.2958199,10.6618829 13.2958199,10.9811825 C13.2958199,11.2276593 13.2426041,11.4475246 13.1361709,11.6407848 C13.0297377,11.8340451 12.8910966,11.9978936 12.7202433,12.1323356 C12.54939,12.2667774 12.3547323,12.3704082 12.1362642,12.4432309 C11.9177961,12.5160536 11.6993313,12.5552652 11.4808631,12.560867 L11.4808631,13.1994629 L11.0943446,13.1994629 L11.0943446,13.1994629 Z M11.085942,6.93114015 C10.9290931,6.93114015 10.7820495,6.95634765 10.6448067,7.00676335 C10.5075639,7.05717905 10.3871282,7.12860025 10.2834958,7.22102905 C10.1798636,7.3134579 10.0986395,7.4240907 10.0398211,7.5529309 C9.9810028,7.68177105 9.95159405,7.82461345 9.95159405,7.98146235 C9.95159405,8.16631995 9.9810028,8.32036565 10.0398211,8.4436041 C10.0986395,8.5668425 10.1798636,8.66907285 10.2834958,8.75029815 C10.3871282,8.8315235 10.5075639,8.897343 10.6448067,8.94775875 C10.7820495,8.99817445 10.9290931,9.04578855 11.085942,9.09060255 C11.085942,9.09060255 10.9290931,9.04578855 11.085942,9.09060255 L11.085942,6.93114015 L11.085942,6.93114015 Z M11.4808631,12.1071279 C11.6545173,12.1071279 11.8183659,12.0763187 11.9724139,12.0146995 C12.1264619,11.9530803 12.2623022,11.8690554 12.3799389,11.7626222 C12.4975756,11.656189 12.590003,11.5287512 12.657224,11.3803049 C12.724445,11.2318586 12.7580549,11.06801 12.7580549,10.8887541 C12.7580549,10.6814895 12.724445,10.5092384 12.657224,10.3719956 C12.590003,10.2347528 12.498976,10.1227196 12.3841402,10.0358925 C12.2693044,9.94906545 12.1348645,9.88044505 11.9808165,9.83002935 C11.8267685,9.77961365 11.6601191,9.73480035 11.4808631,9.6955881 C11.4808631,9.6955881 11.6601191,9.73480035 11.4808631,9.6955881 L11.4808631,12.1071279 L11.4808631,12.1071279 Z" id="stack_money" fill="#000000" sketch:type="MSShapeGroup"/>
    </g>
</svg>